<svg width="24" height="21" viewBox="0 0 24 21" fill="none" xmlns="http://www.w3.org/2000/svg">
<path fill-rule="evenodd" clip-rule="evenodd" d="M19.2724 1.00024H23.1753C23.4514 1.00024 23.6753 0.776383 23.6753 0.500241C23.6753 0.224098 23.4514 0.000240572 23.1753 0.000240572H18.8994C18.8603 -0.000974876 18.8218 0.00243272 18.7845 0.0100679C18.5874 0.0497087 18.4322 0.205225 18.3931 0.402498L17.653 3.29569C17.377 3.04413 17.0057 2.88887 16.5726 2.88887H1.63425C0.608519 2.88887 -0.284819 3.91277 0.0853748 4.94622L1.63161 10.3987C1.65222 10.7648 1.81941 11.0829 2.09014 11.3059C2.37196 11.538 2.73899 11.6469 3.11983 11.6469H15.0045C15.1818 11.6469 15.3644 11.6161 15.5398 11.5564L14.8468 14.2655C14.772 14.221 14.6847 14.1954 14.5913 14.1954H0.97349C0.697348 14.1954 0.47349 14.4193 0.47349 14.6954C0.47349 14.9716 0.697348 15.1954 0.97349 15.1954H2.06703C1.11957 15.6933 0.473358 16.687 0.473358 17.8316C0.473358 19.4752 1.8058 20.8075 3.44933 20.8075C5.09295 20.8075 6.42529 19.4752 6.42529 17.8316C6.42529 16.687 5.77913 15.6933 4.83166 15.1954H11.5592C10.6117 15.6933 9.96555 16.687 9.96555 17.8316C9.96555 19.4752 11.2979 20.8075 12.9415 20.8075C14.5851 20.8075 15.9175 19.4752 15.9175 17.8316C15.9175 16.687 15.2713 15.6933 14.3238 15.1954H14.5913C14.718 15.1954 14.8338 15.1483 14.9219 15.0706C14.9794 15.1214 15.0495 15.1597 15.129 15.1801C15.3965 15.2485 15.6688 15.0871 15.7373 14.8196L19.2724 1.00024ZM14.9175 17.8316C14.9175 16.7403 14.0328 15.8556 12.9415 15.8556C11.8502 15.8556 10.9655 16.7403 10.9655 17.8316C10.9655 18.9229 11.8502 19.8075 12.9415 19.8075C14.0328 19.8075 14.9175 18.9229 14.9175 17.8316ZM3.44933 15.8556C4.54065 15.8556 5.42529 16.7403 5.42529 17.8316C5.42529 18.9229 4.54066 19.8075 3.44933 19.8075C2.35806 19.8075 1.47336 18.9229 1.47336 17.8316C1.47336 16.7403 2.35807 15.8556 3.44933 15.8556ZM15.5964 10.1852L17.1601 4.67088C17.2539 4.21925 16.9643 3.88887 16.5726 3.88887H1.63425C1.18144 3.88887 0.924538 4.33646 1.0295 4.61636L1.03674 4.63567L1.04237 4.65551L2.61048 10.1852L2.62945 10.252V10.3216C2.62945 10.4183 2.66466 10.4836 2.72585 10.534C2.79478 10.5907 2.92294 10.6469 3.11983 10.6469H15.0045C15.3168 10.6469 15.5512 10.4374 15.5842 10.2394L15.5888 10.2119L15.5964 10.1852Z" fill="#021834"/>
</svg>
