<svg width="101" height="90" viewBox="0 0 101 90" fill="none" xmlns="http://www.w3.org/2000/svg">
<path d="M43.4284 27.1428C34.4332 27.1428 27.1426 34.4335 27.1426 43.4286C27.1426 52.4239 34.4332 59.7144 43.4284 59.7144C52.4235 59.7144 59.7142 52.4239 59.7142 43.4286C59.7142 34.4333 52.4235 27.1428 43.4284 27.1428Z" fill="#021834"/>
<path fill-rule="evenodd" clip-rule="evenodd" d="M67.8572 10.8571H76C81.9958 10.8571 86.857 15.7185 86.8573 21.7143V57.2544C85.9302 57.0873 84.9753 57 84 57C75.1634 57 68 64.1634 68 73C68 74.0254 68.0965 75.0282 68.2808 76H10.8571C4.86123 76 0 71.1386 0 65.1429V21.7143C0 15.7184 4.86123 10.8571 10.8571 10.8571H18.9998L21.7141 5.4285C21.843 5.17424 21.9682 4.92199 22.0917 4.67342C23.3464 2.14641 24.4121 0 27.1428 0H59.7145C62.4435 0 63.3768 1.87878 64.7274 4.59758C64.8611 4.86666 64.9989 5.14397 65.1429 5.4285L67.8572 10.8571ZM21.7143 43.4287C21.7143 55.4204 31.4369 65.1429 43.4286 65.1429C55.4204 65.1429 65.1429 55.4204 65.1429 43.4287C65.1429 31.437 55.4202 21.7144 43.4286 21.7144C31.4369 21.7144 21.7143 31.437 21.7143 43.4287Z" fill="#021834"/>
<circle cx="85" cy="74" r="16" fill="#021834"/>
<path d="M85.7071 66.2929C85.3166 65.9024 84.6834 65.9024 84.2929 66.2929L77.9289 72.6569C77.5384 73.0474 77.5384 73.6805 77.9289 74.0711C78.3195 74.4616 78.9526 74.4616 79.3431 74.0711L85 68.4142L90.6569 74.0711C91.0474 74.4616 91.6805 74.4616 92.0711 74.0711C92.4616 73.6805 92.4616 73.0474 92.0711 72.6569L85.7071 66.2929ZM86 81L86 67L84 67L84 81L86 81Z" fill="white"/>
</svg>
